# Blender v2.91.0 OBJ File: ''
# www.blender.org
mtllib insect_plane.mtl
o Plane
v -1.000000 -1.000000 -0.000000
v 1.000000 -1.000000 -0.000000
v -1.000000 1.000000 0.000000
v 1.000000 1.000000 0.000000
v -1.234509 1.234509 0.000000
v -1.234509 -1.234509 -0.000000
v 1.234509 -1.234509 -0.000000
v 1.234509 1.234509 0.000000
vt 1.000000 0.000000
vt 0.000000 1.000000
vt 0.000000 0.000000
vt 0.000000 0.000000
vt 1.000000 0.000000
vt 1.000000 1.000000
vt 1.000000 1.000000
vt 0.000000 1.000000
vn 0.0000 -0.0000 1.0000
vn -0.0000 0.0000 -1.0000
usemtl None
s off
f 7/1/1 5/2/1 6/3/1
f 5/2/2 1/4/2 6/3/2
f 6/3/2 2/5/2 7/1/2
f 7/1/2 4/6/2 8/7/2
f 8/7/2 3/8/2 5/2/2
f 7/1/1 8/7/1 5/2/1
f 5/2/2 3/8/2 1/4/2
f 6/3/2 1/4/2 2/5/2
f 7/1/2 2/5/2 4/6/2
f 8/7/2 4/6/2 3/8/2
